<?xml version="1.0" encoding="utf-8"?>
<!-- Generator: Adobe Illustrator 19.2.0, SVG Export Plug-In . SVG Version: 6.00 Build 0)  -->
<svg version="1.1" id="Layer_1" xmlns="http://www.w3.org/2000/svg" xmlns:xlink="http://www.w3.org/1999/xlink" x="0px" y="0px"
	 viewBox="0 0 83.1 96" style="enable-background:new 0 0 83.1 96;" xml:space="preserve">
<style type="text/css">
	.st0{display:none;opacity:5.000000e-02;fill:none;}
	.st1{fill:#FFFFFF;}
</style>
<polygon class="st0" points="41.6,0 83.1,24 83.1,72 41.6,96 0,72 0,24 "/>
<g>
	<path class="st1" d="M0,0v96h83.1V0H0z M72.2,61.9c0,0,0-0.1,0-0.1H9.7L9.9,61c1.4-11.5,4.9-20.5,10.2-26.8
		c2.7-3.2,5.9-5.6,9.4-7.2c3.6-1.6,7.6-2.5,11.8-2.5c17.6,0,29.2,13.6,31.9,37.2L72.2,61.9z"/>
	<path class="st1" d="M41.3,25.6c-8.3,0-15.2,3.1-20.4,9.3c-4.8,5.6-8,13.4-9.6,23.3H12l0.7-2.4h2.8v-7.6h1.3v-3.8l1.9,2.3v1.5h1V43
		l3.5-2.4v15.3h1.6v-4.8h1v-7.1h0.6v-2.4h2.1v2.4h1.2v-7.3l2.8,2.1v12.4h1.4v-8.9l1.3,1.7v7.1h1.5V47h1.2v4.1h0.6v-8.9l2.6-3.6v12.5
		h0.7v7.2h2.2V32.9l2-2.1V38h1.5v-6.9l1.3,1.4V38h0.9v4.3h1.3v16h2.6V41.7l1.7,2.6v2.4h2.2v1.4l2.4-1.7v6.3h2.3v-2.3l1.4-1.6l0.1,4
		h2v3.4h3.5l0.8,2.2h1.7C68.3,37.5,57.4,25.6,41.3,25.6z"/>
</g>
</svg>
