<?xml version="1.0" encoding="utf-8"?>
<!-- Generator: Adobe Illustrator 19.2.0, SVG Export Plug-In . SVG Version: 6.00 Build 0)  -->
<svg version="1.1" id="Layer_1" xmlns="http://www.w3.org/2000/svg" xmlns:xlink="http://www.w3.org/1999/xlink" x="0px" y="0px"
	 viewBox="0 0 83.1 96" style="enable-background:new 0 0 83.1 96;" xml:space="preserve">
<style type="text/css">
	.st0{display:none;opacity:5.000000e-02;fill:none;}
	.st1{display:none;fill:url(#SVGID_1_);}
</style>
<polygon class="st0" points="41.6,0 83.1,24 83.1,72 41.6,96 0,72 0,24 "/>
<radialGradient id="SVGID_1_" cx="40.3333" cy="98.3333" r="58.9397" gradientUnits="userSpaceOnUse">
	<stop  offset="0" style="stop-color:#FFFFFF"/>
	<stop  offset="1" style="stop-color:#000000"/>
</radialGradient>
<path class="st1" d="M83.2,50.3C73.5,41.6,58.5,36,41.6,36S9.8,41.6,0.1,50.3V96h83.1V50.3z"/>
<path d="M72,53.9c-0.4-14-13.9-25.3-30.4-25.3C25,28.5,11.4,40,11.1,54.1H9.2v7.6h64.3v-7.8H72z M67.3,50.7v4.8h-1.6v-4.4h-0.8v-2.6
	h-0.7v2.6h-1.7v2.1h-1.3V41.1h-2.7v4.2h-2.3v8h-1.8v2.1h-1.1v-3.1h-1.5v-8.6H49v9.1h-0.8V39.6h-2.1v15.6h-1.5V33.1h-3.7v17h-0.6
	v-6.3h-4.4v5.7h-1v-1.2h-3v-9.6h-1.2v-3h-0.9v3h-0.9v12H28v3.1h-0.7v-13h-1.7v2.9h-0.7v12h-1.1v-3.1h-1.9v-3h-1.6v5.6h-1.4V53h-1.1
	v-3.2h-1.4V53h-0.6v2.6h-2.2v-1.5h-0.9c0.3-13.3,13.1-24,28.9-24c15.7,0,28.5,10.6,28.9,23.8h-1.4v-3.1H67.3z"/>
</svg>
