<?xml version="1.0" encoding="utf-8"?>
<!-- Generator: Adobe Illustrator 19.2.0, SVG Export Plug-In . SVG Version: 6.00 Build 0)  -->
<svg version="1.1" id="Layer_1" xmlns="http://www.w3.org/2000/svg" xmlns:xlink="http://www.w3.org/1999/xlink" x="0px" y="0px"
	 viewBox="0 0 83.1 96" style="enable-background:new 0 0 83.1 96;" xml:space="preserve">
<style type="text/css">
	.st0{display:none;opacity:5.000000e-02;fill:none;}
</style>
<polygon class="st0" points="41.6,0 83.1,24 83.1,72 41.6,96 0,72 0,24 "/>
<path d="M53.1,52.7c-1.7,5.2-5.3,8.6-10,8c-4.4-0.5-7.7-4.3-8.9-9.2h8.8v-4.6h-9.2c0-0.5,0.1-1,0.1-1.4c0.1-0.4,0.1-0.9,0.2-1.3h8.9
	v-4.6h-7.3c2.3-4.5,6.5-7.2,10.8-6.7c3.1,0.4,6.5,2.6,8.8,5.7l5.4-14.2c-3.9-3.9-9.2-6.1-15.8-6.1c-12.8,0-22.3,8.5-25.1,21.3h-2.7
	v4.6h1.9C19,45,19,45.9,18.9,46.8h-1.8v4.6h1.9c1.3,15.2,11.4,23.9,25.9,23.9c5.2,0,12.3-3.3,17.5-9.4L53.1,52.7z"/>
</svg>
