<?xml version="1.0" encoding="utf-8"?>
<!-- Generator: Adobe Illustrator 19.2.0, SVG Export Plug-In . SVG Version: 6.00 Build 0)  -->
<svg version="1.1" id="Layer_1" xmlns="http://www.w3.org/2000/svg" xmlns:xlink="http://www.w3.org/1999/xlink" x="0px" y="0px"
	 viewBox="0 0 83.1 96" style="enable-background:new 0 0 83.1 96;" xml:space="preserve">
<style type="text/css">
	.st0{display:none;opacity:5.000000e-02;fill:none;}
</style>
<polygon class="st0" points="41.6,0 83.1,24 83.1,72 41.6,96 0,72 0,24 "/>
<g>
	<ellipse transform="matrix(0.3572 -0.934 0.934 0.3572 -6.618495e-02 86.5031)" cx="62.8" cy="43.3" rx="9.4" ry="5.7"/>
	<ellipse transform="matrix(0.9776 -0.2106 0.2106 0.9776 -6.1343 7.2713)" cx="31.1" cy="32.4" rx="5.7" ry="9.4"/>
	<ellipse transform="matrix(0.991 -0.134 0.134 0.991 -5.7467 2.6402)" cx="16.7" cy="44" rx="5.7" ry="9.4"/>
	<ellipse transform="matrix(0.256 -0.9667 0.9667 0.256 7.0366 71.4837)" cx="50" cy="31.2" rx="9.4" ry="5.7"/>
	<path d="M47.6,44.9c-10.5-5.3-13.8,0.9-14.8,2.2c-0.6,0.9-4.2,6.4-7.8,8.8c-3.5,2.3-5.3,7.3-3.6,10.8s5.3,3.8,5.3,3.8
		s7.6-1.5,13.2-2.2s13.2,2.2,15.7,2.1c3.3-0.1,11.7-4.4-2.6-20.2C51.3,48.2,50,46,47.6,44.9z"/>
</g>
</svg>
