<?xml version="1.0" encoding="utf-8"?>
<!-- Generator: Adobe Illustrator 19.2.0, SVG Export Plug-In . SVG Version: 6.00 Build 0)  -->
<svg version="1.1" id="Layer_1" xmlns="http://www.w3.org/2000/svg" xmlns:xlink="http://www.w3.org/1999/xlink" x="0px" y="0px"
	 viewBox="0 0 83.1 96" style="enable-background:new 0 0 83.1 96;" xml:space="preserve">
<style type="text/css">
	.st0{display:none;opacity:5.000000e-02;fill:none;}
</style>
<polygon class="st0" points="41.6,0 83.1,24 83.1,72 41.6,96 0,72 0,24 "/>
<g>
	<polygon points="64,59 64,52 60.7,52 60.5,37 62,37 62,36 60.4,36 60.4,30 52.7,30 52.4,36 51,36 51,37 52.3,37 51.4,52 46.1,52 
		45.8,47 40.9,47 40.8,52 38.9,52 38.6,47 33.7,47 33.6,52 31.9,52 31.6,47 26.7,47 26.6,52 24.6,52 24.3,47 19.4,47 19.3,52 17,52 
		17,55 16,55 16,70 66,70 66,59 	"/>
	<path d="M17.5,40.8c-1.5-1-2.3-2.4-2.3-3.9c0-2.8,2.9-5.2,6.5-5.2c0.5,0,1,0,1.5,0.1l1,0.2l-0.2-1c0-0.2,0-0.4,0-0.6
		c0-2.5,2.6-4.5,5.9-4.5c2.4,0,4.6,1.2,5.5,2.9l0.6,1.2l0.6-1.2c0.9-1.7,3.4-2.7,5.9-2.3l0.8,0.1l0-0.8c0.2-3.3,2.7-5.9,5.8-5.9
		c0.1,0,0.3,0,0.4,0l0.4,0l0.2-0.4c1.2-2.2,3.6-3.5,6.3-3.5c3.6,0,6.6,2.4,7,7.6l1.4-0.2c-0.4-5.9-4-8.6-8.4-8.6c-3,0-5.8,2-7.3,4
		c0,0-0.1,0-0.1,0c-3.6,0-6.6,2.6-7.1,6.3c-2.4-0.1-4.6,0.6-5.9,2.1c-1.3-1.7-3.6-2.8-6.1-2.8c-3.9,0-7.2,2.6-7.3,5.8
		c-0.3,0-0.6-0.1-0.9-0.1c-4.3,0-7.9,2.9-7.9,6.6c0,2,1.1,3.9,2.9,5.1L17.5,40.8z"/>
</g>
</svg>
