<?xml version="1.0" encoding="utf-8"?>
<!-- Generator: Adobe Illustrator 19.2.0, SVG Export Plug-In . SVG Version: 6.00 Build 0)  -->
<svg version="1.1" id="Layer_1" xmlns="http://www.w3.org/2000/svg" xmlns:xlink="http://www.w3.org/1999/xlink" x="0px" y="0px"
	 viewBox="0 0 83.1 96" style="enable-background:new 0 0 83.1 96;" xml:space="preserve">
<style type="text/css">
	.st0{display:none;opacity:5.000000e-02;fill:none;}
</style>
<polygon class="st0" points="41.6,0 83.1,24 83.1,72 41.6,96 0,72 0,24 "/>
<path d="M65.7,42.4c-0.5-1-2.8-1.7-4.9-2.3c2.5-3.1-0.1-6.6-0.7-7.8c-2.1-4.2-3.9-4-8.7-4.3c-0.8-2.8,0.4-5.7-3.5-7.7
	c-10.8-5.6-11.5,1-11.5,1s-1.5,3.4-1.5,5.1c-4.5-1.1-7.1-0.4-8.7,0.7c-1.4,1-2.7,4.4-2.6,10.2c-0.5,1-2,0.6-3,1.2
	c-1.9,1.3-3.1,2.8-3.7,4.3c-1,2.3,2.5,7.2,3.5,7.6c4.8,1.9,7.1,0.9,12.3-1c5.3-1.8,4.3,2.2,4.7,5.6c0.4,3.4-0.2,13.9-0.2,16.2
	s-1.3,4.8-1.6,6c-0.3,1.2,1.4,1.5,3,0.9c1.6-0.6,4-0.6,6.8,0.3c0.3,0.1,0.6,0,0.8-0.1c0.7-0.3-0.5-2.5-0.5-2.5s0,0-1.3-4.3
	c-1.3-4.3-1.5-21.4-0.2-21.4c2.3,0,9.3,2.2,15.5,1.4c1.3-0.2,1.3-0.4,2.2-0.8C64.7,49.6,66.8,44.5,65.7,42.4z"/>
</svg>
