<?xml version="1.0" encoding="utf-8"?>
<!-- Generator: Adobe Illustrator 19.2.0, SVG Export Plug-In . SVG Version: 6.00 Build 0)  -->
<svg version="1.1" id="Layer_1" xmlns="http://www.w3.org/2000/svg" xmlns:xlink="http://www.w3.org/1999/xlink" x="0px" y="0px"
	 viewBox="0 0 83.1 96" style="enable-background:new 0 0 83.1 96;" xml:space="preserve">
<style type="text/css">
	.st0{display:none;opacity:5.000000e-02;fill:none;}
</style>
<polygon class="st0" points="41.6,0 83.1,24 83.1,72 41.6,96 0,72 0,24 "/>
<path d="M60.9,59.8l-2.1,2.1L46.4,49.6L56,40l2.9,2.9l14.2,9.1L64,37.8l-2.9-2.9l1.2-1.2L58,29.5l-1.2,1.2l-5.7-5.7l-5,5l5.7,5.7
	l-9.6,9.6l-7.6-7.6l5.5-5.5l-7.7-7.7l0,0c-1-0.5-6.8-2.2-14.9,0.2L17.2,25c-2.4,8.1-0.7,13.9-0.2,14.9l0,0l7.7,7.7l5.7-5.7l7.6,7.6
	L22.2,65.4l4.2,4.2l15.8-15.8l12.3,12.3l-2.3,2.3l3.5,3.5l2.3-2.3l0,0l4.2-4.2l0,0l2.1-2.1L60.9,59.8z"/>
</svg>
