<?xml version="1.0" encoding="utf-8"?>
<!-- Generator: Adobe Illustrator 19.2.0, SVG Export Plug-In . SVG Version: 6.00 Build 0)  -->
<svg version="1.1" id="Layer_1" xmlns="http://www.w3.org/2000/svg" xmlns:xlink="http://www.w3.org/1999/xlink" x="0px" y="0px"
	 viewBox="0 0 83.1 96" style="enable-background:new 0 0 83.1 96;" xml:space="preserve">
<style type="text/css">
	.st0{opacity:5.000000e-02;fill:none;}
</style>
<polygon class="st0" points="41.6,0 83.1,24 83.1,72 41.6,96 0,72 0,24 "/>
<g>
	<polygon points="49.4,47.3 49.4,78.8 42,83.3 34.4,78.8 34.4,47.3 0,47.3 0,97.3 83.1,97.3 83.1,47.3 	"/>
	<polygon points="45.7,72.6 46.9,72.6 46.9,43.5 51.7,43.5 41.9,31 32.4,43.5 37.1,43.5 37.1,72.6 38.3,72.6 38.3,42.2 34.8,42.2 
		41.9,32.9 49.2,42.2 45.7,42.2 	"/>
	<path d="M21.6,40.4l0.1-1.2c-2.7-0.2-4.8-2.5-4.8-5.2c0-2.9,2.3-5.2,5.2-5.2c1.3,0,2.6,0.5,3.5,1.4l0.5,0.5l0.4-0.6
		c0.7-1,1.9-1.7,3.1-1.7c0.4,0,0.7,0.1,1.1,0.2l0.9,0.3L31.5,28c-0.1-0.5-0.1-1.1-0.1-1.6c0-5.4,4.4-9.8,9.8-9.8
		c5.4,0,9.8,4.4,9.8,9.8c0,0.8-0.1,1.5-0.3,2.3L50.4,30l1.2-0.7c0.7-0.4,1.6-0.6,2.5-0.6c1.3,0,2.6,0.5,3.5,1.4l0.3,0.3l0.4-0.2
		c0.8-0.5,1.8-0.7,2.7-0.7c3,0,5.5,2.5,5.5,5.5c0,1.9-0.9,3.6-2.5,4.6l0.7,1c1.9-1.2,3.1-3.4,3.1-5.7c0-3.7-3-6.7-6.7-6.7
		c-1,0-2,0.2-2.9,0.7c-1.1-1-2.6-1.5-4.1-1.5c-0.7,0-1.3,0.1-2,0.3c0.1-0.5,0.1-0.9,0.1-1.4c0-6.1-4.9-11-11-11c-6.1,0-11,4.9-11,11
		c0,0.3,0,0.6,0,1c-0.2,0-0.4,0-0.5,0c-1.4,0-2.8,0.6-3.7,1.7c-1.1-0.8-2.4-1.3-3.8-1.3c-3.5,0-6.4,2.9-6.4,6.4
		C15.7,37.4,18.3,40.2,21.6,40.4z"/>
</g>
</svg>
