<?xml version="1.0" encoding="utf-8"?>
<!-- Generator: Adobe Illustrator 19.2.0, SVG Export Plug-In . SVG Version: 6.00 Build 0)  -->
<svg version="1.1" id="Layer_1" xmlns="http://www.w3.org/2000/svg" xmlns:xlink="http://www.w3.org/1999/xlink" x="0px" y="0px"
	 viewBox="0 0 83.1 96" style="enable-background:new 0 0 83.1 96;" xml:space="preserve">
<style type="text/css">
	.st0{display:none;opacity:5.000000e-02;fill:none;}
</style>
<polygon class="st0" points="41.6,0 83.1,24 83.1,72 41.6,96 0,72 0,24 "/>
<g>
	<circle cx="41.4" cy="45.8" r="6.7"/>
	<path d="M32.2,45.8c0-3.6,2-6.6,5-8.2L26.7,19.4l-0.1,0c-9.2,5.2-15.5,15.1-15.5,26.4c0,0.2,0,0.3,0,0.5h21.1
		C32.2,46.1,32.2,45.9,32.2,45.8z"/>
	<path d="M56.3,19.4L56.3,19.4L45.8,37.6c3,1.5,5,4.6,5,8.2c0,0.2,0,0.3,0,0.5h21.1c0-0.2,0-0.3,0-0.5
		C71.8,34.4,65.6,24.5,56.3,19.4z"/>
	<path d="M37.1,54c-0.1-0.1-0.3-0.2-0.4-0.3L26,71.9c0.1,0.1,0.3,0.2,0.4,0.3c9.8,5.7,21.5,5.3,30.6-0.1l0-0.1L46.6,53.8
		C43.8,55.6,40.1,55.7,37.1,54z"/>
</g>
</svg>
