<?xml version="1.0" encoding="utf-8"?>
<!-- Generator: Adobe Illustrator 19.2.0, SVG Export Plug-In . SVG Version: 6.00 Build 0)  -->
<svg version="1.1" id="Layer_1" xmlns="http://www.w3.org/2000/svg" xmlns:xlink="http://www.w3.org/1999/xlink" x="0px" y="0px"
	 viewBox="0 0 83.1 96" style="enable-background:new 0 0 83.1 96;" xml:space="preserve">
<style type="text/css">
	.st0{display:none;opacity:5.000000e-02;fill:none;}
	.st1{fill:url(#SVGID_1_);}
	.st2{display:none;fill:url(#SVGID_2_);}
</style>
<polygon class="st0" points="41.6,0 83.1,24 83.1,72 41.6,96 0,72 0,24 "/>
<path d="M57.1,49.5L57.1,49.5L41.7,16.2l-0.2-0.5l0,0l0,0l-0.2,0.5L25.9,49.5h0c-1.1,2.3-1.7,4.8-1.7,7.5c0,9.5,7.7,17.3,17.3,17.3
	S58.8,66.5,58.8,57C58.8,54.3,58.1,51.8,57.1,49.5z"/>
<radialGradient id="SVGID_1_" cx="41.3333" cy="62.3333" r="38.0015" gradientUnits="userSpaceOnUse">
	<stop  offset="0.1798" style="stop-color:#FFFFFF"/>
	<stop  offset="0.2602" style="stop-color:#FAFAFA"/>
	<stop  offset="0.3619" style="stop-color:#EAEAEA"/>
	<stop  offset="0.475" style="stop-color:#D0D0D0"/>
	<stop  offset="0.5965" style="stop-color:#ACACAC"/>
	<stop  offset="0.7247" style="stop-color:#7D7D7D"/>
	<stop  offset="0.8585" style="stop-color:#454545"/>
	<stop  offset="0.9945" style="stop-color:#030303"/>
	<stop  offset="1" style="stop-color:#000000"/>
</radialGradient>
<path class="st1" d="M54.5,50.8L54.5,50.8L41.7,23l-0.2-0.4l0,0l0,0L41.3,23L28.5,50.8h0c-0.9,1.9-1.4,4-1.4,6.2
	c0,7.9,6.4,14.4,14.4,14.4S55.9,64.9,55.9,57C55.9,54.8,55.4,52.7,54.5,50.8z"/>
<radialGradient id="SVGID_2_" cx="40.3333" cy="98.3333" r="58.9397" gradientUnits="userSpaceOnUse">
	<stop  offset="0" style="stop-color:#FFFFFF"/>
	<stop  offset="1" style="stop-color:#000000"/>
</radialGradient>
<path class="st2" d="M83.2,50.3C73.5,41.6,58.5,36,41.6,36S9.8,41.6,0.1,50.3V96h83.1V50.3z"/>
</svg>
