<?xml version="1.0" encoding="utf-8"?>
<!-- Generator: Adobe Illustrator 19.2.0, SVG Export Plug-In . SVG Version: 6.00 Build 0)  -->
<svg version="1.1" id="Layer_1" xmlns="http://www.w3.org/2000/svg" xmlns:xlink="http://www.w3.org/1999/xlink" x="0px" y="0px"
	 viewBox="0 0 83.1 96" style="enable-background:new 0 0 83.1 96;" xml:space="preserve">
<style type="text/css">
	.st0{display:none;opacity:5.000000e-02;fill:none;}
	.st1{display:none;fill:#727696;}
	.st2{fill:url(#SVGID_1_);}
</style>
<polygon class="st0" points="41.6,0 83.1,24 83.1,72 41.6,96 0,72 0,24 "/>
<path class="st1" d="M57.1,49.5L57.1,49.5L41.7,16.2l-0.2-0.5l0,0l0,0l-0.2,0.5L25.9,49.5h0c-1.1,2.3-1.7,4.8-1.7,7.5
	c0,9.5,7.7,17.3,17.3,17.3S58.8,66.5,58.8,57C58.8,54.3,58.1,51.8,57.1,49.5z"/>
<radialGradient id="SVGID_1_" cx="40.3333" cy="98.3333" r="58.9397" gradientUnits="userSpaceOnUse">
	<stop  offset="0" style="stop-color:#FFFFFF"/>
	<stop  offset="1" style="stop-color:#000000"/>
</radialGradient>
<path class="st2" d="M83.2,50.3C73.5,41.6,58.5,36,41.6,36S9.8,41.6,0.1,50.3V96h83.1V50.3z"/>
</svg>
