<?xml version="1.0" encoding="utf-8"?>
<!-- Generator: Adobe Illustrator 19.2.0, SVG Export Plug-In . SVG Version: 6.00 Build 0)  -->
<svg version="1.1" id="Layer_1" xmlns="http://www.w3.org/2000/svg" xmlns:xlink="http://www.w3.org/1999/xlink" x="0px" y="0px"
	 viewBox="0 0 83.1 96" style="enable-background:new 0 0 83.1 96;" xml:space="preserve">
<style type="text/css">
	.st0{fill:none;}
	.st1{opacity:5.000000e-02;fill:none;}
</style>
<polygon class="st0" points="41.6,0 83.1,24 83.1,72 41.6,96 0,72 0,24 "/>
<polygon class="st1" points="41.6,0 83.1,24 83.1,72 41.6,96 0,72 0,24 "/>
<path d="M67,40.2l5.5-20.6l-20.6,5.5l4.5,4.5l-2.1,2.1c-3.4-2.3-7.5-3.7-11.8-3.7c-11.6,0-21,9.4-21,21s9.4,21,21,21s21-9.4,21-21
	c0-4.2-1.2-8.1-3.4-11.4l2.2-2.2L67,40.2z M42.4,60c-6.1,0-11-4.9-11-11s4.9-11,11-11s11,4.9,11,11S48.5,60,42.4,60z"/>
</svg>
