<?xml version="1.0" encoding="utf-8"?>
<!-- Generator: Adobe Illustrator 19.2.0, SVG Export Plug-In . SVG Version: 6.00 Build 0)  -->
<svg version="1.1" id="Layer_1" xmlns="http://www.w3.org/2000/svg" xmlns:xlink="http://www.w3.org/1999/xlink" x="0px" y="0px"
	 viewBox="0 0 83.1 96" style="enable-background:new 0 0 83.1 96;" xml:space="preserve">
<style type="text/css">
	.st0{display:none;opacity:5.000000e-02;fill:none;}
</style>
<polygon class="st0" points="41.6,0 83.1,24 83.1,72 41.6,96 0,72 0,24 "/>
<path d="M41.4,19.3c-15.4,0-27.9,12.5-27.9,27.9S26,75.2,41.4,75.2s27.9-12.5,27.9-27.9S56.8,19.3,41.4,19.3z M20.9,47.2
	c0-4.1,1.2-7.9,3.2-11.1l28.3,28.3c-3.2,2.1-7,3.2-11.1,3.2C30.1,67.7,20.9,58.5,20.9,47.2z M58.4,58.7L29.9,30.3
	c3.3-2.2,7.2-3.5,11.4-3.5c11.3,0,20.5,9.2,20.5,20.5C61.8,51.5,60.6,55.4,58.4,58.7z"/>
</svg>
