<?xml version="1.0" encoding="utf-8"?>
<!-- Generator: Adobe Illustrator 19.2.0, SVG Export Plug-In . SVG Version: 6.00 Build 0)  -->
<svg version="1.1" id="Layer_1" xmlns="http://www.w3.org/2000/svg" xmlns:xlink="http://www.w3.org/1999/xlink" x="0px" y="0px"
	 viewBox="0 0 83.1 96" style="enable-background:new 0 0 83.1 96;" xml:space="preserve">
<style type="text/css">
	.st0{display:none;opacity:5.000000e-02;fill:none;}
</style>
<polygon class="st0" points="41.6,0 83.1,24 83.1,72 41.6,96 0,72 0,24 "/>
<g>
	<path d="M23.1,34.4c-0.6-0.8-0.9-1.8-0.9-2.7c0-2.8,2.5-5.1,5.5-5.1c1.3,0,2.6,0.4,3.6,1.2l1.4,1.1l-0.3-1.7c0-0.3-0.1-0.6-0.1-0.9
		c0-4.2,4.2-7.7,9.4-7.7c4.5,0,8.4,2.7,9.2,6.3l0.1,0.6l0.6,0c0.3,0,0.6,0,0.8,0c4.6,0,8.4,2.7,8.4,6.1c0,1-0.4,2-1,2.9l1.1,0.8
		c0.8-1.1,1.3-2.4,1.3-3.7c0-4.1-4.4-7.5-9.8-7.5c-0.1,0-0.2,0-0.3,0c-1.2-4-5.5-6.8-10.4-6.8c-5.8,0-10.6,3.9-10.8,8.8
		c-1-0.5-2.1-0.8-3.2-0.8c-3.8,0-6.9,2.9-6.9,6.5c0,1.3,0.4,2.5,1.1,3.6L23.1,34.4z"/>
	<path d="M49.6,36.9c-5.1,5.2-3.7,10.2-3.7,10.4l1.3-0.4c0,0-1.2-4.3,3.3-9L49.6,36.9z"/>
	<path d="M37.5,42.5l0.7,0c0-0.4,0.2-3.6-1.2-4.9c-0.5-0.4-1-0.7-1.7-0.6l0.1,1.4c0.2,0,0.4,0,0.6,0.2c0.7,0.7,0.8,2.7,0.7,3.8
		L37.5,42.5z"/>
	<path d="M52.5,49.4c0,0-16.8-0.8-18.6-3.1c-1.2-1.5-1.7-1.1-2-0.1C30.2,54,17.5,67.4,17.5,67.4H65C65,67.4,52.6,52.6,52.5,49.4z"/>
</g>
</svg>
